<svg width="927" height="586" viewBox="0 0 927 586" fill="none" xmlns="http://www.w3.org/2000/svg">
<path d="M297.188 325.084H333.32V388.561H297.188V464H214.912V388.561H77.4609L72.5781 338.268L214.912 109.264V108.531H297.188V325.084ZM150.947 325.084H214.912V215.709L209.785 224.01L150.947 325.084ZM616.279 318.736C616.279 366.751 605.456 403.779 583.809 429.82C562.324 455.862 531.969 468.883 492.744 468.883C453.193 468.883 422.594 455.781 400.947 429.576C379.3 403.372 368.477 366.425 368.477 318.736V253.795C368.477 205.781 379.219 168.753 400.703 142.711C422.35 116.669 452.868 103.648 492.256 103.648C531.644 103.648 562.161 116.751 583.809 142.955C605.456 169.16 616.279 206.188 616.279 254.039V318.736ZM534.004 243.297C534.004 217.743 530.667 198.701 523.994 186.168C517.321 173.473 506.742 167.125 492.256 167.125C478.096 167.125 467.76 172.984 461.25 184.703C454.902 196.422 451.484 214.163 450.996 237.926V328.746C450.996 355.276 454.333 374.726 461.006 387.096C467.679 399.303 478.258 405.406 492.744 405.406C506.742 405.406 517.077 399.465 523.75 387.584C530.423 375.54 533.841 356.741 534.004 331.188V243.297ZM876.289 325.084H912.422V388.561H876.289V464H794.014V388.561H656.562L651.68 338.268L794.014 109.264V108.531H876.289V325.084ZM730.049 325.084H794.014V215.709L788.887 224.01L730.049 325.084Z" fill="#00FFFF" fill-opacity="0.75"/>
<path d="M239.188 325.084H275.32V388.561H239.188V464H156.912V388.561H19.4609L14.5781 338.268L156.912 109.264V108.531H239.188V325.084ZM92.9473 325.084H156.912V215.709L151.785 224.01L92.9473 325.084ZM558.279 318.736C558.279 366.751 547.456 403.779 525.809 429.82C504.324 455.862 473.969 468.883 434.744 468.883C395.193 468.883 364.594 455.781 342.947 429.576C321.3 403.372 310.477 366.425 310.477 318.736V253.795C310.477 205.781 321.219 168.753 342.703 142.711C364.35 116.669 394.868 103.648 434.256 103.648C473.644 103.648 504.161 116.751 525.809 142.955C547.456 169.16 558.279 206.188 558.279 254.039V318.736ZM476.004 243.297C476.004 217.743 472.667 198.701 465.994 186.168C459.321 173.473 448.742 167.125 434.256 167.125C420.096 167.125 409.76 172.984 403.25 184.703C396.902 196.422 393.484 214.163 392.996 237.926V328.746C392.996 355.276 396.333 374.726 403.006 387.096C409.679 399.303 420.258 405.406 434.744 405.406C448.742 405.406 459.077 399.465 465.75 387.584C472.423 375.54 475.841 356.741 476.004 331.188V243.297ZM818.289 325.084H854.422V388.561H818.289V464H736.014V388.561H598.562L593.68 338.268L736.014 109.264V108.531H818.289V325.084ZM672.049 325.084H736.014V215.709L730.887 224.01L672.049 325.084Z" fill="#FF0000" fill-opacity="0.75"/>
<path d="M268.188 325.084H304.32V388.561H268.188V464H185.912V388.561H48.4609L43.5781 338.268L185.912 109.264V108.531H268.188V325.084ZM121.947 325.084H185.912V215.709L180.785 224.01L121.947 325.084ZM587.279 318.736C587.279 366.751 576.456 403.779 554.809 429.82C533.324 455.862 502.969 468.883 463.744 468.883C424.193 468.883 393.594 455.781 371.947 429.576C350.3 403.372 339.477 366.425 339.477 318.736V253.795C339.477 205.781 350.219 168.753 371.703 142.711C393.35 116.669 423.868 103.648 463.256 103.648C502.644 103.648 533.161 116.751 554.809 142.955C576.456 169.16 587.279 206.188 587.279 254.039V318.736ZM505.004 243.297C505.004 217.743 501.667 198.701 494.994 186.168C488.321 173.473 477.742 167.125 463.256 167.125C449.096 167.125 438.76 172.984 432.25 184.703C425.902 196.422 422.484 214.163 421.996 237.926V328.746C421.996 355.276 425.333 374.726 432.006 387.096C438.679 399.303 449.258 405.406 463.744 405.406C477.742 405.406 488.077 399.465 494.75 387.584C501.423 375.54 504.841 356.741 505.004 331.188V243.297ZM847.289 325.084H883.422V388.561H847.289V464H765.014V388.561H627.562L622.68 338.268L765.014 109.264V108.531H847.289V325.084ZM701.049 325.084H765.014V215.709L759.887 224.01L701.049 325.084Z" fill="white"/>
</svg>
