<svg width="967" height="646" viewBox="0 0 967 646" fill="none" xmlns="http://www.w3.org/2000/svg">
<path d="M315.425 341.382L351.47 343.902L347.042 407.224L310.997 404.703L305.735 479.959L223.66 474.22L228.922 398.964L91.806 389.376L90.4433 338.865L248.405 120.348L248.456 119.617L330.531 125.356L315.425 341.382ZM169.541 331.18L233.35 335.642L240.98 226.534L235.286 234.457L169.541 331.18ZM634.183 357.308C630.833 405.205 617.453 441.388 594.042 465.856C570.793 490.336 539.604 501.208 500.475 498.471C461.02 495.712 431.41 480.508 411.643 452.857C391.877 425.206 383.657 387.595 386.983 340.022L391.513 275.239C394.863 227.342 408.162 191.153 431.41 166.674C454.821 142.205 486.173 131.345 525.465 134.093C564.757 136.84 594.286 152.039 614.053 179.69C633.819 207.341 642.034 245.033 638.696 292.768L634.183 357.308ZM557.37 276.313C559.152 250.822 557.152 231.593 551.37 218.625C545.598 205.495 535.487 198.425 521.037 197.415C506.911 196.427 496.193 201.551 488.881 212.787C481.731 224.034 477.084 241.494 474.939 265.165L468.604 355.764C466.753 382.229 468.725 401.864 474.519 414.67C480.324 427.312 490.452 434.139 504.902 435.149C518.866 436.126 529.59 430.921 537.076 419.533C544.573 407.984 549.294 389.469 551.239 363.99L557.37 276.313ZM893.116 381.778L929.161 384.298L924.733 447.62L888.688 445.1L883.426 520.355L801.351 514.616L806.613 439.36L669.497 429.772L668.134 379.261L826.096 160.744L826.147 160.013L908.222 165.752L893.116 381.778ZM747.232 371.576L811.041 376.038L818.671 266.93L812.977 274.853L747.232 371.576Z" fill="#00FFFF" fill-opacity="0.75"/>
<path d="M261.901 368.63L297.946 366.11L302.374 429.432L266.329 431.952L271.592 507.208L189.517 512.947L184.254 437.691L47.1379 447.279L38.7587 397.45L164.771 159.075L164.72 158.344L246.795 152.605L261.901 368.63ZM116.017 378.831L179.826 374.369L172.197 265.261L167.661 273.899L116.017 378.831ZM579.773 340.039C583.122 387.937 574.908 425.629 555.13 453.118C535.515 480.595 506.142 495.701 467.012 498.437C427.558 501.196 396.12 490.26 372.697 465.63C349.275 440.999 335.901 404.898 332.574 357.325L328.044 292.542C324.695 244.645 332.828 206.957 352.443 179.48C372.221 151.992 401.756 136.874 441.048 134.127C480.34 131.379 511.697 142.321 535.12 166.951C558.542 191.582 571.922 227.765 575.26 275.5L579.773 340.039ZM492.436 270.523C490.653 245.032 485.996 226.268 478.465 214.231C470.923 202.032 459.926 196.438 445.476 197.449C431.35 198.436 421.449 205.002 415.772 217.147C410.257 229.28 408.085 247.216 409.255 270.955L415.591 361.554C417.441 388.02 422.127 407.189 429.646 419.063C437.155 430.775 448.134 436.126 462.585 435.115C476.548 434.139 486.444 427.492 492.272 415.174C498.088 402.693 500.187 383.702 498.567 358.199L492.436 270.523ZM839.592 328.234L875.637 325.714L880.065 389.036L844.02 391.556L849.283 466.812L767.208 472.551L761.945 397.295L624.829 406.883L616.45 357.054L742.462 118.679L742.411 117.948L824.486 112.209L839.592 328.234ZM693.708 338.435L757.517 333.973L749.888 224.865L745.352 233.503L693.708 338.435Z" fill="#FF0000" fill-opacity="0.75"/>
<path d="M288.188 355.084H324.32V418.561H288.188V494H205.912V418.561H68.4609L63.5781 368.268L205.912 139.264V138.531H288.188V355.084ZM141.947 355.084H205.912V245.709L200.785 254.01L141.947 355.084ZM607.279 348.736C607.279 396.751 596.456 433.779 574.809 459.82C553.324 485.862 522.969 498.883 483.744 498.883C444.193 498.883 413.594 485.781 391.947 459.576C370.3 433.372 359.477 396.425 359.477 348.736V283.795C359.477 235.781 370.219 198.753 391.703 172.711C413.35 146.669 443.868 133.648 483.256 133.648C522.644 133.648 553.161 146.751 574.809 172.955C596.456 199.16 607.279 236.188 607.279 284.039V348.736ZM525.004 273.297C525.004 247.743 521.667 228.701 514.994 216.168C508.321 203.473 497.742 197.125 483.256 197.125C469.096 197.125 458.76 202.984 452.25 214.703C445.902 226.422 442.484 244.163 441.996 267.926V358.746C441.996 385.276 445.333 404.726 452.006 417.096C458.679 429.303 469.258 435.406 483.744 435.406C497.742 435.406 508.077 429.465 514.75 417.584C521.423 405.54 524.841 386.741 525.004 361.188V273.297ZM867.289 355.084H903.422V418.561H867.289V494H785.014V418.561H647.562L642.68 368.268L785.014 139.264V138.531H867.289V355.084ZM721.049 355.084H785.014V245.709L779.887 254.01L721.049 355.084Z" fill="white"/>
</svg>
