<svg width="927" height="586" viewBox="0 0 927 586" fill="none" xmlns="http://www.w3.org/2000/svg">
<path d="M84.7852 290.172L106.514 108.531H314.277V172.496H173.408L165.352 243.053C171.211 239.635 178.861 236.624 188.301 234.02C197.904 231.415 207.262 230.113 216.377 230.113C251.696 230.113 278.796 240.611 297.676 261.607C316.719 282.441 326.24 311.738 326.24 349.498C326.24 372.285 321.113 392.955 310.859 411.51C300.768 429.902 286.527 444.062 268.135 453.99C249.743 463.919 228.014 468.883 202.949 468.883C180.651 468.883 159.736 464.326 140.205 455.211C120.674 445.934 105.374 433.32 94.3066 417.369C83.2389 401.256 77.7865 383.108 77.9492 362.926H160.469C161.283 375.947 165.433 386.282 172.92 393.932C180.407 401.581 190.254 405.406 202.461 405.406C230.13 405.406 243.965 384.898 243.965 343.883C243.965 305.96 227.038 286.998 193.184 286.998C173.978 286.998 159.655 293.183 150.215 305.553L84.7852 290.172ZM616.279 318.736C616.279 366.751 605.456 403.779 583.809 429.82C562.324 455.862 531.969 468.883 492.744 468.883C453.193 468.883 422.594 455.781 400.947 429.576C379.3 403.372 368.477 366.425 368.477 318.736V253.795C368.477 205.781 379.219 168.753 400.703 142.711C422.35 116.669 452.868 103.648 492.256 103.648C531.644 103.648 562.161 116.751 583.809 142.955C605.456 169.16 616.279 206.188 616.279 254.039V318.736ZM534.004 243.297C534.004 217.743 530.667 198.701 523.994 186.168C517.321 173.473 506.742 167.125 492.256 167.125C478.096 167.125 467.76 172.984 461.25 184.703C454.902 196.422 451.484 214.163 450.996 237.926V328.746C450.996 355.276 454.333 374.726 461.006 387.096C467.679 399.303 478.258 405.406 492.744 405.406C506.742 405.406 517.077 399.465 523.75 387.584C530.423 375.54 533.841 356.741 534.004 331.188V243.297ZM905.83 318.736C905.83 366.751 895.007 403.779 873.359 429.82C851.875 455.862 821.52 468.883 782.295 468.883C742.744 468.883 712.145 455.781 690.498 429.576C668.851 403.372 658.027 366.425 658.027 318.736V253.795C658.027 205.781 668.77 168.753 690.254 142.711C711.901 116.669 742.419 103.648 781.807 103.648C821.195 103.648 851.712 116.751 873.359 142.955C895.007 169.16 905.83 206.188 905.83 254.039V318.736ZM823.555 243.297C823.555 217.743 820.218 198.701 813.545 186.168C806.872 173.473 796.292 167.125 781.807 167.125C767.646 167.125 757.311 172.984 750.801 184.703C744.453 196.422 741.035 214.163 740.547 237.926V328.746C740.547 355.276 743.883 374.726 750.557 387.096C757.23 399.303 767.809 405.406 782.295 405.406C796.292 405.406 806.628 399.465 813.301 387.584C819.974 375.54 823.392 356.741 823.555 331.188V243.297Z" fill="#00FFFF" fill-opacity="0.75"/>
<path d="M26.7852 290.172L48.5137 108.531H256.277V172.496H115.408L107.352 243.053C113.211 239.635 120.861 236.624 130.301 234.02C139.904 231.415 149.262 230.113 158.377 230.113C193.696 230.113 220.796 240.611 239.676 261.607C258.719 282.441 268.24 311.738 268.24 349.498C268.24 372.285 263.113 392.955 252.859 411.51C242.768 429.902 228.527 444.062 210.135 453.99C191.743 463.919 170.014 468.883 144.949 468.883C122.651 468.883 101.736 464.326 82.2051 455.211C62.6738 445.934 47.3743 433.32 36.3066 417.369C25.2389 401.256 19.7865 383.108 19.9492 362.926H102.469C103.283 375.947 107.433 386.282 114.92 393.932C122.407 401.581 132.254 405.406 144.461 405.406C172.13 405.406 185.965 384.898 185.965 343.883C185.965 305.96 169.038 286.998 135.184 286.998C115.978 286.998 101.655 293.183 92.2148 305.553L26.7852 290.172ZM558.279 318.736C558.279 366.751 547.456 403.779 525.809 429.82C504.324 455.862 473.969 468.883 434.744 468.883C395.193 468.883 364.594 455.781 342.947 429.576C321.3 403.372 310.477 366.425 310.477 318.736V253.795C310.477 205.781 321.219 168.753 342.703 142.711C364.35 116.669 394.868 103.648 434.256 103.648C473.644 103.648 504.161 116.751 525.809 142.955C547.456 169.16 558.279 206.188 558.279 254.039V318.736ZM476.004 243.297C476.004 217.743 472.667 198.701 465.994 186.168C459.321 173.473 448.742 167.125 434.256 167.125C420.096 167.125 409.76 172.984 403.25 184.703C396.902 196.422 393.484 214.163 392.996 237.926V328.746C392.996 355.276 396.333 374.726 403.006 387.096C409.679 399.303 420.258 405.406 434.744 405.406C448.742 405.406 459.077 399.465 465.75 387.584C472.423 375.54 475.841 356.741 476.004 331.188V243.297ZM847.83 318.736C847.83 366.751 837.007 403.779 815.359 429.82C793.875 455.862 763.52 468.883 724.295 468.883C684.744 468.883 654.145 455.781 632.498 429.576C610.851 403.372 600.027 366.425 600.027 318.736V253.795C600.027 205.781 610.77 168.753 632.254 142.711C653.901 116.669 684.419 103.648 723.807 103.648C763.195 103.648 793.712 116.751 815.359 142.955C837.007 169.16 847.83 206.188 847.83 254.039V318.736ZM765.555 243.297C765.555 217.743 762.218 198.701 755.545 186.168C748.872 173.473 738.292 167.125 723.807 167.125C709.646 167.125 699.311 172.984 692.801 184.703C686.453 196.422 683.035 214.163 682.547 237.926V328.746C682.547 355.276 685.883 374.726 692.557 387.096C699.23 399.303 709.809 405.406 724.295 405.406C738.292 405.406 748.628 399.465 755.301 387.584C761.974 375.54 765.392 356.741 765.555 331.188V243.297Z" fill="#FF0000" fill-opacity="0.75"/>
<path d="M55.7852 290.172L77.5137 108.531H285.277V172.496H144.408L136.352 243.053C142.211 239.635 149.861 236.624 159.301 234.02C168.904 231.415 178.262 230.113 187.377 230.113C222.696 230.113 249.796 240.611 268.676 261.607C287.719 282.441 297.24 311.738 297.24 349.498C297.24 372.285 292.113 392.955 281.859 411.51C271.768 429.902 257.527 444.062 239.135 453.99C220.743 463.919 199.014 468.883 173.949 468.883C151.651 468.883 130.736 464.326 111.205 455.211C91.6738 445.934 76.3743 433.32 65.3066 417.369C54.2389 401.256 48.7865 383.108 48.9492 362.926H131.469C132.283 375.947 136.433 386.282 143.92 393.932C151.407 401.581 161.254 405.406 173.461 405.406C201.13 405.406 214.965 384.898 214.965 343.883C214.965 305.96 198.038 286.998 164.184 286.998C144.978 286.998 130.655 293.183 121.215 305.553L55.7852 290.172ZM587.279 318.736C587.279 366.751 576.456 403.779 554.809 429.82C533.324 455.862 502.969 468.883 463.744 468.883C424.193 468.883 393.594 455.781 371.947 429.576C350.3 403.372 339.477 366.425 339.477 318.736V253.795C339.477 205.781 350.219 168.753 371.703 142.711C393.35 116.669 423.868 103.648 463.256 103.648C502.644 103.648 533.161 116.751 554.809 142.955C576.456 169.16 587.279 206.188 587.279 254.039V318.736ZM505.004 243.297C505.004 217.743 501.667 198.701 494.994 186.168C488.321 173.473 477.742 167.125 463.256 167.125C449.096 167.125 438.76 172.984 432.25 184.703C425.902 196.422 422.484 214.163 421.996 237.926V328.746C421.996 355.276 425.333 374.726 432.006 387.096C438.679 399.303 449.258 405.406 463.744 405.406C477.742 405.406 488.077 399.465 494.75 387.584C501.423 375.54 504.841 356.741 505.004 331.188V243.297ZM876.83 318.736C876.83 366.751 866.007 403.779 844.359 429.82C822.875 455.862 792.52 468.883 753.295 468.883C713.744 468.883 683.145 455.781 661.498 429.576C639.851 403.372 629.027 366.425 629.027 318.736V253.795C629.027 205.781 639.77 168.753 661.254 142.711C682.901 116.669 713.419 103.648 752.807 103.648C792.195 103.648 822.712 116.751 844.359 142.955C866.007 169.16 876.83 206.188 876.83 254.039V318.736ZM794.555 243.297C794.555 217.743 791.218 198.701 784.545 186.168C777.872 173.473 767.292 167.125 752.807 167.125C738.646 167.125 728.311 172.984 721.801 184.703C715.453 196.422 712.035 214.163 711.547 237.926V328.746C711.547 355.276 714.883 374.726 721.557 387.096C728.23 399.303 738.809 405.406 753.295 405.406C767.292 405.406 777.628 399.465 784.301 387.584C790.974 375.54 794.392 356.741 794.555 331.188V243.297Z" fill="white"/>
</svg>
