<svg width="975" height="660" viewBox="0 0 975 660" fill="none" xmlns="http://www.w3.org/2000/svg">
<path d="M110.583 291.648L148.06 112.592L355.033 130.7L349.458 194.421L209.125 182.144L194.95 251.73C201.085 248.836 208.968 246.503 218.599 244.731C228.392 242.974 237.829 242.492 246.909 243.287C282.093 246.365 308.175 259.185 325.153 281.747C342.308 304.161 349.24 334.176 345.949 371.793C343.963 394.492 337.054 414.637 325.222 432.228C313.566 449.67 298.144 462.535 278.957 470.823C259.77 479.11 237.691 482.162 212.722 479.977C190.508 478.034 170.07 471.671 151.408 460.889C132.76 449.945 118.618 436.045 108.982 419.191C99.3611 402.174 95.511 383.62 97.4322 363.529L179.638 370.721C179.314 383.763 182.547 394.421 189.339 402.694C196.131 410.967 205.607 415.636 217.768 416.7C245.332 419.111 260.901 399.887 264.476 359.028C267.781 321.249 252.571 300.884 218.846 297.934C199.713 296.26 184.905 301.173 174.423 312.673L110.583 291.648ZM637.565 366.426C633.38 414.258 619.371 450.202 595.536 474.258C571.864 498.328 540.49 508.653 501.414 505.235C462.014 501.788 432.673 486.068 413.392 458.077C394.111 430.086 386.549 392.336 390.705 344.829L396.365 280.135C400.55 232.303 414.479 196.352 438.151 172.282C461.985 148.226 493.522 137.915 532.76 141.348C571.998 144.781 601.257 160.493 620.538 188.484C639.819 216.475 647.374 254.306 643.204 301.975L637.565 366.426ZM562.178 284.103C564.405 258.647 562.741 239.386 557.185 226.319C551.644 213.091 541.658 205.845 527.227 204.583C513.121 203.349 502.315 208.285 494.808 219.392C487.463 230.512 482.511 247.888 479.954 271.518L472.038 361.993C469.726 388.422 471.355 408.088 476.925 420.993C482.509 433.735 492.516 440.737 506.946 442C520.89 443.22 531.704 438.202 539.387 426.948C547.085 415.531 552.128 397.101 554.518 371.659L562.178 284.103ZM926.014 391.662C921.829 439.494 907.82 475.438 883.985 499.494C860.313 523.564 828.939 533.889 789.863 530.471C750.463 527.024 721.122 511.304 701.841 483.313C682.56 455.322 674.998 417.572 679.154 370.065L684.814 305.371C688.999 257.539 702.928 221.588 726.6 197.518C750.434 173.462 781.971 163.151 821.209 166.584C860.447 170.017 889.706 185.729 908.987 213.72C928.268 241.711 935.823 279.542 931.653 327.211L926.014 391.662ZM850.627 309.339C852.854 283.883 851.19 264.622 845.634 251.555C840.093 238.327 830.107 231.081 815.676 229.819C801.57 228.585 790.763 233.521 783.256 244.628C775.912 255.748 770.96 273.124 768.403 296.754L760.487 387.229C758.175 413.658 759.804 433.324 765.374 446.229C770.957 458.971 780.965 465.973 795.395 467.236C809.339 468.456 820.153 463.438 827.836 452.184C835.534 440.767 840.577 422.337 842.967 396.895L850.627 309.339Z" fill="#00FFFF" fill-opacity="0.75"/>
<path d="M52.0901 362.717L57.9049 179.874L264.878 161.766L270.453 225.488L130.12 237.765L128.243 308.756C133.782 304.84 141.141 301.174 150.318 297.757C159.657 294.325 168.867 292.213 177.947 291.418C213.131 288.34 241.043 296.436 261.681 315.707C282.467 334.801 294.506 363.157 297.797 400.774C299.783 423.473 296.477 444.512 287.879 463.89C279.43 483.091 266.476 498.439 249.02 509.932C231.563 521.426 210.35 528.265 185.38 530.45C163.167 532.393 141.935 529.676 121.683 522.298C101.418 514.758 85.0771 503.526 72.6613 488.601C60.2313 473.513 53.2179 455.91 51.6211 435.79L133.827 428.598C135.772 441.498 140.808 451.433 148.933 458.401C157.058 465.369 167.201 468.321 179.361 467.257C206.925 464.846 218.92 443.21 215.345 402.35C212.04 364.572 193.525 347.157 159.799 350.108C140.667 351.782 126.937 359.192 118.611 372.337L52.0901 362.717ZM584.051 344.85C588.236 392.682 580.681 430.512 561.386 458.342C542.253 486.157 513.148 501.774 474.072 505.192C434.672 508.639 403.048 498.254 379.199 474.036C355.35 449.818 341.348 413.955 337.192 366.448L331.531 301.753C327.347 253.922 334.821 216.099 353.954 188.283C373.249 160.454 402.516 144.823 441.754 141.39C480.992 137.957 512.535 148.35 536.384 172.568C560.232 196.786 574.242 232.73 578.413 280.399L584.051 344.85ZM495.514 276.869C493.287 251.413 488.303 232.733 480.563 220.83C472.809 208.764 461.717 203.363 447.286 204.625C433.18 205.859 423.394 212.597 417.93 224.839C412.628 237.066 410.769 255.038 412.354 278.753L420.269 369.227C422.582 395.656 427.601 414.741 435.327 426.483C443.038 438.062 454.109 443.22 468.54 441.957C482.484 440.737 492.262 433.918 497.875 421.5C503.473 408.92 505.239 389.895 503.174 364.425L495.514 276.869ZM872.5 319.614C876.685 367.446 869.13 405.276 849.835 433.106C830.702 460.921 801.597 476.538 762.521 479.956C723.121 483.403 691.497 473.018 667.648 448.8C643.799 424.582 629.797 388.719 625.64 341.212L619.98 276.517C615.796 228.686 623.27 190.863 642.403 163.047C661.698 135.218 690.964 119.587 730.203 116.154C769.441 112.721 800.984 123.114 824.833 147.332C848.681 171.55 862.691 207.494 866.862 255.163L872.5 319.614ZM783.963 251.633C781.736 226.177 776.752 207.497 769.012 195.594C761.258 183.528 750.166 178.127 735.735 179.389C721.629 180.623 711.843 187.361 706.379 199.603C701.077 211.83 699.218 229.802 700.803 253.517L708.718 343.991C711.031 370.42 716.05 389.505 723.776 401.247C731.487 412.826 742.558 417.984 756.989 416.721C770.933 415.501 780.711 408.682 786.324 396.264C791.922 383.684 793.688 364.659 791.623 339.189L783.963 251.633Z" fill="#FF0000" fill-opacity="0.75"/>
<path d="M79.785 327.172L101.514 145.531H309.277V209.496H168.408L160.351 280.053C166.211 276.635 173.861 273.624 183.301 271.02C192.904 268.415 202.262 267.113 211.377 267.113C246.696 267.113 273.795 277.611 292.676 298.607C311.719 319.441 321.24 348.738 321.24 386.498C321.24 409.285 316.113 429.955 305.859 448.51C295.768 466.902 281.527 481.062 263.135 490.99C244.743 500.919 223.014 505.883 197.949 505.883C175.651 505.883 154.736 501.326 135.205 492.211C115.674 482.934 100.374 470.32 89.3065 454.369C78.2388 438.256 72.7863 420.108 72.9491 399.926H155.469C156.282 412.947 160.433 423.282 167.92 430.932C175.407 438.581 185.254 442.406 197.461 442.406C225.13 442.406 238.965 421.898 238.965 380.883C238.965 342.96 222.038 323.998 188.183 323.998C168.978 323.998 154.655 330.183 145.215 342.553L79.785 327.172ZM611.279 355.736C611.279 403.751 600.456 440.779 578.808 466.82C557.324 492.862 526.969 505.883 487.744 505.883C448.193 505.883 417.594 492.781 395.947 466.576C374.3 440.372 363.476 403.425 363.476 355.736V290.795C363.476 242.781 374.219 205.753 395.703 179.711C417.35 153.669 447.868 140.648 487.256 140.648C526.644 140.648 557.161 153.751 578.808 179.955C600.456 206.16 611.279 243.188 611.279 291.039V355.736ZM529.004 280.297C529.004 254.743 525.667 235.701 518.994 223.168C512.321 210.473 501.741 204.125 487.256 204.125C473.096 204.125 462.76 209.984 456.25 221.703C449.902 233.422 446.484 251.163 445.996 274.926V365.746C445.996 392.276 449.333 411.726 456.006 424.096C462.679 436.303 473.258 442.406 487.744 442.406C501.741 442.406 512.077 436.465 518.75 424.584C525.423 412.54 528.841 393.741 529.004 368.188V280.297ZM900.83 355.736C900.83 403.751 890.006 440.779 868.359 466.82C846.875 492.862 816.52 505.883 777.295 505.883C737.744 505.883 707.145 492.781 685.498 466.576C663.851 440.372 653.027 403.425 653.027 355.736V290.795C653.027 242.781 663.769 205.753 685.254 179.711C706.901 153.669 737.418 140.648 776.807 140.648C816.195 140.648 846.712 153.751 868.359 179.955C890.006 206.16 900.83 243.188 900.83 291.039V355.736ZM818.555 280.297C818.555 254.743 815.218 235.701 808.545 223.168C801.872 210.473 791.292 204.125 776.807 204.125C762.646 204.125 752.311 209.984 745.801 221.703C739.453 233.422 736.035 251.163 735.547 274.926V365.746C735.547 392.276 738.883 411.726 745.557 424.096C752.23 436.303 762.809 442.406 777.295 442.406C791.292 442.406 801.627 436.465 808.301 424.584C814.974 412.54 818.392 393.741 818.555 368.188V280.297Z" fill="white"/>
</svg>
