<svg width="500" height="500" viewBox="0 0 500 500" fill="none" xmlns="http://www.w3.org/2000/svg">
<path d="M181.47 233.367L216.802 150.047H266.768L204.937 273.05V342H158.003V273.05L96.304 150.047H146.006L181.47 233.367ZM377.642 290.979C377.642 284.212 375.225 278.938 370.391 275.159C365.645 271.38 357.251 267.469 345.21 263.426C333.169 259.383 323.326 255.472 315.679 251.692C290.806 239.476 278.369 222.688 278.369 201.331C278.369 190.696 281.446 181.336 287.598 173.25C293.838 165.076 302.627 158.748 313.965 154.266C325.303 149.695 338.047 147.41 352.198 147.41C365.996 147.41 378.345 149.871 389.243 154.793C400.23 159.715 408.755 166.746 414.82 175.887C420.884 184.939 423.916 195.311 423.916 207H377.774C377.774 199.178 375.357 193.113 370.523 188.807C365.777 184.5 359.317 182.347 351.143 182.347C342.881 182.347 336.333 184.192 331.499 187.884C326.753 191.487 324.38 196.102 324.38 201.727C324.38 206.648 327.017 211.131 332.29 215.174C337.564 219.129 346.836 223.26 360.108 227.566C373.379 231.785 384.278 236.355 392.803 241.277C413.545 253.23 423.916 269.71 423.916 290.716C423.916 307.503 417.588 320.687 404.932 330.267C392.276 339.847 374.917 344.637 352.857 344.637C337.3 344.637 323.194 341.868 310.537 336.331C297.969 330.706 288.477 323.06 282.061 313.392C275.733 303.636 272.569 292.43 272.569 279.773H318.975C318.975 290.057 321.612 297.659 326.885 302.581C332.246 307.415 340.904 309.832 352.857 309.832C360.503 309.832 366.524 308.206 370.918 304.954C375.401 301.614 377.642 296.956 377.642 290.979Z" fill="#00FFFF" fill-opacity="0.75"/>
<path d="M151.626 233.367L186.958 150.047H236.924L175.092 273.05V342H128.159V273.05L66.4596 150.047H116.162L151.626 233.367ZM347.798 290.979C347.798 284.212 345.381 278.938 340.547 275.159C335.8 271.38 327.407 267.469 315.366 263.426C303.325 259.383 293.481 255.472 285.835 251.692C260.962 239.476 248.525 222.688 248.525 201.331C248.525 190.696 251.601 181.336 257.754 173.25C263.994 165.076 272.783 158.748 284.121 154.266C295.459 149.695 308.203 147.41 322.353 147.41C336.152 147.41 348.501 149.871 359.399 154.793C370.385 159.715 378.911 166.746 384.975 175.887C391.04 184.939 394.072 195.311 394.072 207H347.929C347.929 199.178 345.512 193.113 340.678 188.807C335.932 184.5 329.472 182.347 321.299 182.347C313.037 182.347 306.489 184.192 301.655 187.884C296.909 191.487 294.536 196.102 294.536 201.727C294.536 206.648 297.173 211.131 302.446 215.174C307.719 219.129 316.992 223.26 330.263 227.566C343.535 231.785 354.433 236.355 362.959 241.277C383.701 253.23 394.072 269.71 394.072 290.716C394.072 307.503 387.744 320.687 375.088 330.267C362.431 339.847 345.073 344.637 323.012 344.637C307.456 344.637 293.349 341.868 280.693 336.331C268.125 330.706 258.632 323.06 252.216 313.392C245.888 303.636 242.724 292.43 242.724 279.773H289.131C289.131 290.057 291.767 297.659 297.041 302.581C302.402 307.415 311.059 309.832 323.012 309.832C330.659 309.832 336.679 308.206 341.074 304.954C345.556 301.614 347.798 296.956 347.798 290.979Z" fill="#FF0000" fill-opacity="0.75"/>
<path d="M166.548 233.367L201.88 150.047H251.846L190.015 273.05V342H143.081V273.05L81.3818 150.047H131.084L166.548 233.367ZM362.72 290.979C362.72 284.212 360.303 278.938 355.469 275.159C350.723 271.38 342.329 267.469 330.288 263.426C318.247 259.383 308.403 255.472 300.757 251.692C275.884 239.476 263.447 222.688 263.447 201.331C263.447 190.696 266.523 181.336 272.676 173.25C278.916 165.076 287.705 158.748 299.043 154.266C310.381 149.695 323.125 147.41 337.275 147.41C351.074 147.41 363.423 149.871 374.321 154.793C385.308 159.715 393.833 166.746 399.897 175.887C405.962 184.939 408.994 195.311 408.994 207H362.852C362.852 199.178 360.435 193.113 355.601 188.807C350.854 184.5 344.395 182.347 336.221 182.347C327.959 182.347 321.411 184.192 316.577 187.884C311.831 191.487 309.458 196.102 309.458 201.727C309.458 206.648 312.095 211.131 317.368 215.174C322.642 219.129 331.914 223.26 345.186 227.566C358.457 231.785 369.355 236.355 377.881 241.277C398.623 253.23 408.994 269.71 408.994 290.716C408.994 307.503 402.666 320.687 390.01 330.267C377.354 339.847 359.995 344.637 337.935 344.637C322.378 344.637 308.271 341.868 295.615 336.331C283.047 330.706 273.555 323.06 267.139 313.392C260.811 303.636 257.646 292.43 257.646 279.773H304.053C304.053 290.057 306.689 297.659 311.963 302.581C317.324 307.415 325.981 309.832 337.935 309.832C345.581 309.832 351.602 308.206 355.996 304.954C360.479 301.614 362.72 296.956 362.72 290.979Z" fill="white"/>
</svg>
